<?xml version="1.0" standalone="no"?><svg xmlns="http://www.w3.org/2000/svg" viewBox="0 0 1440 320"><path fill="#8C8C8C" fill-opacity="1" d="M0,192L17.1,181.3C34.3,171,69,149,103,128C137.1,107,171,85,206,90.7C240,96,274,128,309,160C342.9,192,377,224,411,218.7C445.7,213,480,171,514,149.3C548.6,128,583,128,617,138.7C651.4,149,686,171,720,186.7C754.3,203,789,213,823,186.7C857.1,160,891,96,926,90.7C960,85,994,139,1029,133.3C1062.9,128,1097,64,1131,80C1165.7,96,1200,192,1234,208C1268.6,224,1303,160,1337,117.3C1371.4,75,1406,53,1423,42.7L1440,32L1440,0L1422.9,0C1405.7,0,1371,0,1337,0C1302.9,0,1269,0,1234,0C1200,0,1166,0,1131,0C1097.1,0,1063,0,1029,0C994.3,0,960,0,926,0C891.4,0,857,0,823,0C788.6,0,754,0,720,0C685.7,0,651,0,617,0C582.9,0,549,0,514,0C480,0,446,0,411,0C377.1,0,343,0,309,0C274.3,0,240,0,206,0C171.4,0,137,0,103,0C68.6,0,34,0,17,0L0,0Z"></path></svg>